<svg width="46" height="50" viewBox="0 0 46 50" fill="none" xmlns="http://www.w3.org/2000/svg">
    <path d="M30.2808 24.6753C30.2808 26.2597 29.112 27.5584 27.6315 27.5584C26.177 27.5584 24.9821 26.2597 24.9821 24.6753C24.9821 23.0909 26.151 21.7922 27.6315 21.7922C29.112 21.7922 30.2808 23.0909 30.2808 24.6753ZM18.151 21.7922C16.6705 21.7922 15.5016 23.0909 15.5016 24.6753C15.5016 26.2597 16.6964 27.5584 18.151 27.5584C19.6315 27.5584 20.8003 26.2597 20.8003 24.6753C20.8263 23.0909 19.6315 21.7922 18.151 21.7922ZM45.5795 5.35065V51.9481C39.0359 46.1654 41.1287 48.0795 33.5276 41.013L34.9042 45.8182H5.44968C2.51461 45.8182 0.125 43.4286 0.125 40.4675V5.35065C0.125 2.38961 2.51461 0 5.44968 0H40.2549C43.1899 0 45.5795 2.38961 45.5795 5.35065ZM38.177 29.974C38.177 21.6104 34.4367 14.8312 34.4367 14.8312C30.6964 12.026 27.138 12.1039 27.138 12.1039L26.7744 12.5195C31.1899 13.8701 33.2419 15.8182 33.2419 15.8182C27.0719 12.4366 19.8243 12.436 13.8393 15.0649C12.8782 15.5065 12.3068 15.8182 12.3068 15.8182C12.3068 15.8182 14.4627 13.7662 19.138 12.4156L18.8782 12.1039C18.8782 12.1039 15.3198 12.026 11.5795 14.8312C11.5795 14.8312 7.83929 21.6104 7.83929 29.974C7.83929 29.974 10.0211 33.7403 15.7614 33.9221C15.7614 33.9221 16.7224 32.7532 17.5016 31.7662C14.2029 30.7792 12.9562 28.7013 12.9562 28.7013C13.3383 28.9688 13.9683 29.3154 14.0211 29.3506C18.4052 31.8058 24.6327 32.6102 30.2289 30.2597C31.138 29.9221 32.151 29.4286 33.2159 28.7273C33.2159 28.7273 31.9172 30.8571 28.5146 31.8182C29.2938 32.8052 30.2289 33.9221 30.2289 33.9221C35.9692 33.7403 38.177 29.974 38.177 29.974Z" fill="#00D17D" />
</svg>
    