<svg width="38" height="50" viewBox="0 0 38 50" fill="none" xmlns="http://www.w3.org/2000/svg">
    <path d="M28.502 24.1804H9.75204V30.4304H28.502V24.1804ZM37.1935 9.43433L27.6329 -0.135986C27.1935 -0.575439 26.5977 -0.81958 25.9727 -0.81958H25.377V11.6804H37.877V11.0847C37.877 10.4695 37.6329 9.87378 37.1935 9.43433ZM22.252 12.4617V-0.81958H2.72079C1.42197 -0.81958 0.377045 0.225342 0.377045 1.52417V46.8367C0.377045 48.1355 1.42197 49.1804 2.72079 49.1804H35.5333C36.8321 49.1804 37.877 48.1355 37.877 46.8367V14.8054H24.5958C23.3067 14.8054 22.252 13.7507 22.252 12.4617ZM6.62704 6.21167C6.62704 5.78003 6.97665 5.43042 7.40829 5.43042H15.2208C15.6524 5.43042 16.002 5.78003 16.002 6.21167V7.77417C16.002 8.20581 15.6524 8.55542 15.2208 8.55542H7.40829C6.97665 8.55542 6.62704 8.20581 6.62704 7.77417V6.21167ZM6.62704 12.4617C6.62704 12.03 6.97665 11.6804 7.40829 11.6804H15.2208C15.6524 11.6804 16.002 12.03 16.002 12.4617V14.0242C16.002 14.4558 15.6524 14.8054 15.2208 14.8054H7.40829C6.97665 14.8054 6.62704 14.4558 6.62704 14.0242V12.4617ZM31.627 42.1492C31.627 42.5808 31.2774 42.9304 30.8458 42.9304H23.0333C22.6017 42.9304 22.252 42.5808 22.252 42.1492V40.5867C22.252 40.155 22.6017 39.8054 23.0333 39.8054H30.8458C31.2774 39.8054 31.627 40.155 31.627 40.5867V42.1492ZM31.627 22.6179V31.9929C31.627 32.8562 30.9278 33.5554 30.0645 33.5554H8.18954C7.32626 33.5554 6.62704 32.8562 6.62704 31.9929V22.6179C6.62704 21.7546 7.32626 21.0554 8.18954 21.0554H30.0645C30.9278 21.0554 31.627 21.7546 31.627 22.6179Z" fill="#00D17D" />
</svg>
    