<svg width="48" height="34" viewBox="0 0 48 34" fill="none" xmlns="http://www.w3.org/2000/svg">
    <path d="M46.7131 5.54903C46.1679 3.49608 44.5615 1.87924 42.5218 1.33054C38.8247 0.333496 24 0.333496 24 0.333496C24 0.333496 9.17534 0.333496 5.47821 1.33054C3.43854 1.87933 1.83212 3.49608 1.28689 5.54903C0.296265 9.27013 0.296265 17.0338 0.296265 17.0338C0.296265 17.0338 0.296265 24.7976 1.28689 28.5186C1.83212 30.5716 3.43854 32.1211 5.47821 32.6698C9.17534 33.6668 24 33.6668 24 33.6668C24 33.6668 38.8246 33.6668 42.5218 32.6698C44.5615 32.1211 46.1679 30.5716 46.7131 28.5186C47.7037 24.7976 47.7037 17.0338 47.7037 17.0338C47.7037 17.0338 47.7037 9.27013 46.7131 5.54903ZM19.1515 24.0827V9.98497L31.542 17.034L19.1515 24.0827Z" fill="#00D17D" />
</svg>
    