<svg width="71" height="71" viewBox="0 0 71 71" fill="none" xmlns="http://www.w3.org/2000/svg">
<path d="M48.8125 13.3125C48.8125 5.96012 42.8524 0 35.5 0C28.1476 0 22.1875 5.96012 22.1875 13.3125C22.1875 20.6649 28.1476 26.625 35.5 26.625C42.8524 26.625 48.8125 20.6649 48.8125 13.3125ZM32.3924 33.4338C24.165 28.3972 10.8386 27.0133 4.13242 26.6319C1.879 26.5044 0 28.2211 0 30.3886V61.2846C0 63.2718 1.60721 64.9289 3.67342 65.0357C9.72783 65.3533 21.9767 66.5167 30.4426 70.7809C31.742 71.4354 33.2826 70.5438 33.2826 69.1349V35.023C33.2812 34.3754 32.9609 33.7819 32.3924 33.4338ZM66.8676 26.6319C60.1628 27.0119 46.835 28.3972 38.609 33.4338C38.0405 33.7819 37.7201 34.3989 37.7201 35.0465V69.1307C37.7201 70.5438 39.2649 71.4368 40.5685 70.7809C49.033 66.5209 61.2749 65.3574 67.328 65.0399C69.3942 64.9317 71.0014 63.2746 71.0014 61.2874V30.3886C71 28.2211 69.121 26.5044 66.8676 26.6319Z" fill="white"/>
</svg>
