<svg width="46" height="61" viewBox="0 0 46 61" fill="none" xmlns="http://www.w3.org/2000/svg">
<path d="M26.75 16.5957V0.658203H3.3125C1.75391 0.658203 0.5 1.91211 0.5 3.4707V57.8457C0.5 59.4043 1.75391 60.6582 3.3125 60.6582H42.6875C44.2461 60.6582 45.5 59.4043 45.5 57.8457V19.4082H29.5625C28.0156 19.4082 26.75 18.1426 26.75 16.5957ZM34.25 44.252C34.25 45.0254 33.6172 45.6582 32.8438 45.6582H13.1562C12.3828 45.6582 11.75 45.0254 11.75 44.252V43.3145C11.75 42.541 12.3828 41.9082 13.1562 41.9082H32.8438C33.6172 41.9082 34.25 42.541 34.25 43.3145V44.252ZM34.25 36.752C34.25 37.5254 33.6172 38.1582 32.8438 38.1582H13.1562C12.3828 38.1582 11.75 37.5254 11.75 36.752V35.8145C11.75 35.041 12.3828 34.4082 13.1562 34.4082H32.8438C33.6172 34.4082 34.25 35.041 34.25 35.8145V36.752ZM34.25 28.3145V29.252C34.25 30.0254 33.6172 30.6582 32.8438 30.6582H13.1562C12.3828 30.6582 11.75 30.0254 11.75 29.252V28.3145C11.75 27.541 12.3828 26.9082 13.1562 26.9082H32.8438C33.6172 26.9082 34.25 27.541 34.25 28.3145ZM45.5 14.9434V15.6582H30.5V0.658203H31.2148C31.9648 0.658203 32.6797 0.951172 33.207 1.47852L44.6797 12.9629C45.207 13.4902 45.5 14.2051 45.5 14.9434Z" fill="white"/>
</svg>
