<svg width="52" height="61" viewBox="0 0 52 61" fill="none" xmlns="http://www.w3.org/2000/svg">
<path d="M51.825 42.62C51.825 43.46 51.105 43.82 50.265 44.18C46.905 45.62 43.305 46.94 39.465 46.94C34.065 46.94 31.545 43.58 25.065 43.58C20.385 43.58 15.465 45.26 11.505 47.06C11.265 47.18 11.025 47.18 10.785 47.3V56.42C10.785 58.9284 8.89565 60.5 6.82495 60.5C4.54495 60.5 2.74495 58.7 2.74495 56.42V12.5C1.18495 11.3 0.10495 9.38 0.10495 7.22C0.10495 3.5 3.10495 0.5 6.82495 0.5C10.545 0.5 13.545 3.5 13.545 7.22C13.545 9.38 12.585 11.3 10.905 12.5V16.22C11.3882 16.059 17.7918 12.86 24.3449 12.86C31.9938 12.86 35.7914 16.1 39.225 16.1C43.785 16.1 48.825 12.86 50.025 12.86C50.985 12.86 51.825 13.58 51.825 14.42V42.62Z" fill="white"/>
</svg>
