<svg width="71" height="57" viewBox="0 0 71 57" fill="none" xmlns="http://www.w3.org/2000/svg">
<path d="M54.1375 21.4H37.275V27.6125C37.275 32.0167 33.6917 35.6 29.2875 35.6C24.8833 35.6 21.3 32.0167 21.3 27.6125V14.1225L14.1002 18.4491C11.9591 19.7249 10.65 22.0435 10.65 24.5285V29.7758L1.775 34.9011C0.0776535 35.8774 -0.510315 38.0517 0.477029 39.7491L9.35203 55.125C10.3283 56.8224 12.5027 57.3992 14.2 56.423L25.6709 49.8H40.825C44.7411 49.8 47.925 46.6161 47.925 42.7H49.7C51.6636 42.7 53.25 41.1136 53.25 39.15V32.05H54.1375C55.613 32.05 56.8 30.863 56.8 29.3875V24.0625C56.8 22.587 55.613 21.4 54.1375 21.4ZM70.523 17.251L61.648 1.87502C60.6717 0.177673 58.4973 -0.399202 56.8 0.577049L45.3291 7.20002H33.9912C32.66 7.20002 31.362 7.57721 30.2305 8.27611L26.5141 10.5947C25.4712 11.2381 24.85 12.3808 24.85 13.6011V27.6125C24.85 30.0642 26.8358 32.05 29.2875 32.05C31.7392 32.05 33.725 30.0642 33.725 27.6125V17.85H54.1375C57.5655 17.85 60.35 20.6345 60.35 24.0625V27.2242L69.225 22.0989C70.9223 21.1116 71.4992 18.9483 70.523 17.251Z" fill="white"/>
</svg>
