<svg width="71" height="51" viewBox="0 0 71 51" fill="none" xmlns="http://www.w3.org/2000/svg">
<path d="M21.3 25.5C28.167 25.5 33.725 19.9421 33.725 13.075C33.725 6.20799 28.167 0.650024 21.3 0.650024C14.433 0.650024 8.875 6.20799 8.875 13.075C8.875 19.9421 14.433 25.5 21.3 25.5ZM29.82 29.05H28.8992C26.5917 30.1594 24.0291 30.825 21.3 30.825C18.5709 30.825 16.0194 30.1594 13.7008 29.05H12.78C5.72437 29.05 0 34.7744 0 41.83V45.025C0 47.9649 2.38516 50.35 5.325 50.35H37.275C40.2148 50.35 42.6 47.9649 42.6 45.025V41.83C42.6 34.7744 36.8756 29.05 29.82 29.05ZM53.25 25.5C59.1297 25.5 63.9 20.7297 63.9 14.85C63.9 8.97034 59.1297 4.20002 53.25 4.20002C47.3703 4.20002 42.6 8.97034 42.6 14.85C42.6 20.7297 47.3703 25.5 53.25 25.5ZM58.575 29.05H58.1534C56.6114 29.5825 54.9806 29.9375 53.25 29.9375C51.5194 29.9375 49.8886 29.5825 48.3466 29.05H47.925C45.6619 29.05 43.5762 29.7046 41.7458 30.7585C44.4527 33.6761 46.15 37.5478 46.15 41.83V46.09C46.15 46.3341 46.0945 46.5671 46.0834 46.8H65.675C68.6148 46.8 71 44.4149 71 41.475C71 34.608 65.442 29.05 58.575 29.05Z" fill="white"/>
</svg>
