<svg width="797" height="580" viewBox="0 0 797 580" fill="none" xmlns="http://www.w3.org/2000/svg">
    <g clip-path="url(#clip0_508:1390)">
        <g opacity="0.4">
            <path opacity="0.4" d="M472.2 305.886C431.233 282.195 365.015 282.195 324.314 305.886L323.774 306.222C297.571 321.702 288.649 343.342 296.944 363.055C301.353 373.545 310.648 383.498 324.806 391.688C365.783 415.384 432.006 415.384 472.713 391.688C513.42 367.991 513.193 329.577 472.221 305.881L472.2 305.886Z" fill="#00B65C" />
            <path opacity="0.4" d="M491.275 294.785C439.777 265.015 356.277 265.015 305.114 294.785C303.742 295.586 302.412 296.409 301.11 297.215L303.726 298.26C304.893 297.518 306.098 296.793 307.341 296.095C357.272 267.034 438.804 267.029 489.065 296.095C539.326 325.161 539.607 372.473 489.67 401.539C439.734 430.605 358.19 430.616 307.919 401.539C289.476 390.876 277.76 377.756 272.794 363.98L269.633 364.094C274.675 378.308 286.709 391.839 305.709 402.827C357.212 432.597 440.728 432.597 491.896 402.827C543.065 373.057 542.779 324.592 491.275 294.812V294.785Z" fill="#00B65C" />
            <path opacity="0.4" d="M509.864 283.959C448.061 248.236 347.804 248.236 286.401 283.959C283.879 285.428 281.46 286.933 279.144 288.474L286.109 291.239C288.105 289.93 290.18 288.647 292.334 287.391C350.49 253.54 445.44 253.54 503.969 287.391C562.497 321.242 562.827 376.337 504.671 410.188C446.515 444.039 351.56 444.045 293.015 410.188C270.773 397.328 256.95 381.404 251.53 364.722L243.122 365.03C248.715 382.833 263.375 399.872 287.114 413.598C348.934 449.349 449.196 449.349 510.61 413.598C572.024 377.848 571.673 319.688 509.864 283.938V283.959Z" fill="#00B65C" />
            <path opacity="0.4" d="M547.907 261.816C464.986 213.865 330.496 213.865 248.11 261.816C165.724 309.767 166.156 387.807 249.077 435.758C283.975 455.942 327.999 467.633 373.429 470.821L372.992 460.402C332.274 457.224 292.934 446.583 261.608 428.467C185.642 384.538 185.242 313.047 260.722 269.107C336.202 225.167 459.414 225.178 535.375 269.107C584.593 297.567 602.102 337.588 587.792 374.189L604.636 377.718C621.101 337.442 602.145 293.193 547.896 261.811L547.907 261.816Z" fill="#00B65C" />
            <path opacity="0.4" d="M235.443 443.709C144.946 391.374 144.459 306.227 234.362 253.881C324.265 201.535 471.048 201.546 561.546 253.881C652.043 306.216 652.519 391.363 562.627 443.703C472.734 496.044 325.94 496.044 235.454 443.703L235.443 443.709ZM564.502 252.165C519.872 226.352 460.646 212.112 397.73 212.112C334.813 212.112 275.75 226.331 231.407 252.165C187.063 278 162.778 312.295 162.967 348.792C163.157 385.29 187.857 419.617 232.493 445.425C277.128 471.232 336.359 485.446 399.27 485.446C462.181 485.446 521.271 471.232 565.582 445.425C609.894 419.617 634.211 385.29 634.027 348.792C633.843 312.295 609.126 277.978 564.496 252.165H564.502Z" fill="#00B65C" />
            <path opacity="0.4" d="M698.44 287.402L691.232 288.647C723.308 341.025 712.566 400.278 658.895 447.866L664.92 450.356C698.824 420.472 716.921 385.452 716.705 348.792C716.586 327.553 710.329 306.866 698.44 287.402ZM611.515 212.02C552.7 181.092 477.279 164.172 397.487 164.172C312.496 164.172 232.671 183.37 172.781 218.239C112.891 253.107 80.0355 299.483 80.3165 348.792C80.5975 398.102 113.95 444.472 174.245 479.341C234.541 514.209 314.571 533.419 399.583 533.413C450.482 533.413 499.499 526.534 543.513 513.516L539.844 509.727C423.409 543.925 277.052 532.785 179.411 476.326C57.826 405.999 57.1558 291.564 177.985 221.232C295.133 153.032 484.126 150.965 606.349 215.018L611.52 212.009L611.515 212.02Z" fill="#00B65C" />
            <path opacity="0.4" d="M655.886 198.964C620.923 178.743 580.173 163.084 534.814 152.415C491.01 142.131 444.743 136.903 397.309 136.903C349.874 136.903 303.672 142.12 259.977 152.415C214.736 163.078 174.164 178.737 139.429 198.964C104.693 219.191 77.8255 242.774 59.5985 269.058C41.993 294.444 33.12 321.269 33.3091 348.787C33.4982 376.305 42.6037 403.141 60.4956 428.516C61.6556 430.168 62.848 431.806 64.0729 433.43L71.1357 432.11C13.515 356.089 37.9239 264.106 144.627 201.995C283.699 121.043 510.745 121.043 650.73 201.995C790.716 282.947 791.461 414.681 652.389 495.638C565.847 546.008 445.246 565.05 332.749 552.725L330.961 556.958C353.787 559.467 376.734 560.716 399.697 560.698C447.121 560.698 493.329 555.481 537.034 545.186C582.28 534.523 622.831 518.869 657.582 498.637C692.334 478.404 719.186 454.832 737.413 428.548C755.007 403.163 763.848 376.337 763.697 348.819C763.545 321.301 754.397 294.476 736.51 269.085C717.991 242.812 690.87 219.219 655.891 198.991L655.886 198.964Z" fill="#00B65C" />
            <path opacity="0.4" d="M679.354 185.292C641.198 163.23 596.746 146.137 547.242 134.51C519.17 127.947 490.683 123.307 461.981 120.621L462.521 122.012C541.352 129.59 617.07 150.965 677.895 186.152C832.984 275.824 833.784 421.739 679.738 511.411C525.692 601.082 274.183 601.088 119.116 511.411C-35.9514 421.734 -36.7566 275.83 117.306 186.152C136.322 175.167 156.159 165.674 176.639 157.758L176.142 156.437C155.31 164.467 135.136 174.115 115.803 185.292C77.8848 207.365 48.5693 233.097 28.6941 261.784C9.48363 289.48 -0.162057 318.752 5.67036e-05 348.782C0.16217 378.811 10.1537 408.077 29.6722 435.779C49.877 464.467 79.4736 490.198 117.63 512.26C155.786 534.322 200.248 551.421 249.753 563.053C297.56 574.284 348.042 579.978 399.8 579.984C451.557 579.989 501.969 574.284 549.652 563.053C599.021 551.421 643.284 534.333 681.202 512.26C719.12 490.188 748.42 464.456 768.306 435.779C787.505 408.072 797.162 378.8 796.995 348.776C796.827 318.752 786.846 289.475 767.328 261.778C747.123 233.091 717.521 207.359 679.354 185.286V185.292Z" fill="#00B65C" />
        </g>
        <g opacity="0.1">
            <path opacity="0.1" d="M549.604 254.574C531.56 244.144 510.545 236.057 487.12 230.553C440.446 219.879 391.971 219.879 345.297 230.553C321.942 236.057 301.018 244.133 283.094 254.569C265.17 265.004 251.303 277.177 241.895 290.741C232.806 303.845 228.24 317.68 228.316 331.878C228.391 346.075 233.12 359.915 242.366 373.014C249.747 383.493 259.793 393.133 272.286 401.788L247.251 416.359L244.986 415.054C241.685 413.143 236.292 413.143 233.017 415.054L52.0656 520.379C48.7801 522.295 48.8233 525.419 52.1034 527.329L81.111 544.108C84.4127 546.019 89.8004 546.019 93.0859 544.108L274.032 438.778C277.312 436.873 277.274 433.744 273.994 431.833L271.73 430.524L296.766 415.953C311.723 423.173 328.367 428.943 346.448 433.214C393.123 443.895 441.601 443.895 488.276 433.214C511.631 427.714 532.587 419.633 550.495 409.192C568.403 398.751 582.27 386.594 591.678 373.025C600.761 359.921 605.327 346.075 605.252 331.888C605.176 317.702 600.448 303.851 591.202 290.752C581.648 277.183 567.652 265.02 549.593 254.579L549.604 254.574Z" fill="black" />
        </g>
        <path d="M289.514 277.307C261.165 293.81 246.97 315.45 246.905 337.123L247.013 299.97C247.078 278.292 261.268 256.669 289.616 240.155C315.954 224.821 349.987 216.566 384.647 215.386C384.608 227.778 384.572 240.164 384.539 252.544C349.879 253.73 315.852 261.984 289.514 277.307Z" fill="#B7B7B7" />
        <path d="M384.555 252.55C384.595 240.166 384.631 227.78 384.663 215.392C425.089 214.022 466.369 222.277 497.3 240.166C526.205 256.88 540.639 278.872 540.574 300.836L540.471 337.989C540.536 316.03 526.102 294.038 497.192 277.318C466.25 259.445 424.965 251.175 384.555 252.55Z" fill="#B7B7B7" />
        <path d="M565.042 300.906L564.939 338.059C564.902 350.784 560.751 363.19 552.608 374.946L552.716 337.788C560.833 326.021 564.983 313.626 565.042 300.906Z" fill="#B7B7B7" />
        <path opacity="0.3" d="M540.558 300.825L540.455 337.978C540.39 359.656 526.205 381.279 497.857 397.799C440.782 431.022 347.632 431.022 290.189 397.799C261.279 381.084 246.846 359.093 246.905 337.134L247.013 299.976C246.948 321.935 261.387 343.926 290.297 360.646C347.729 393.858 440.89 393.858 497.96 360.646C526.308 344.143 540.498 322.498 540.558 300.825Z" fill="#39C3F2" />
        <g opacity="0.5">
            <path opacity="0.5" d="M497.284 256.598C554.721 289.81 555.024 343.861 497.96 377.074C440.896 410.286 347.734 410.296 290.297 377.074C232.86 343.851 232.547 289.8 289.616 256.582C346.686 223.365 439.836 223.375 497.284 256.598Z" fill="#66ACDF" />
        </g>
        <path d="M222.442 337.085L222.55 299.932V300.403C222.625 313.307 226.916 325.88 235.303 337.788C242.014 347.304 251.125 356.067 262.484 363.932C265.831 366.252 269.372 368.493 273.108 370.654C276.843 372.815 280.716 374.863 284.726 376.797C298.316 383.358 313.442 388.613 329.869 392.494C372.278 402.197 416.325 402.197 458.733 392.494C479.959 387.493 498.975 380.148 515.262 370.665C531.549 361.182 544.146 350.135 552.689 337.805L552.581 374.963C544.038 387.287 531.447 398.34 515.16 407.823C498.873 417.306 479.851 424.651 458.631 429.647C416.222 439.346 372.175 439.346 329.766 429.647C313.339 425.782 298.208 420.526 284.623 413.95C280.614 412.012 276.741 409.964 273.005 407.807C269.269 405.649 265.726 403.408 262.376 401.084C251.028 393.219 241.906 384.456 235.2 374.935C226.808 363.028 222.523 350.454 222.442 337.556V337.085Z" fill="#B7B7B7" />
        <path d="M244.7 400.445L244.619 429.392L227.289 419.368L227.37 390.421L244.7 400.445Z" fill="#4D4C4D" />
        <path d="M279.749 380.11L279.663 409.057L244.619 429.392L244.7 400.446L279.749 380.11Z" fill="#3A3A3B" />
        <path d="M279.722 380.11L244.678 400.445L227.37 390.432L262.414 370.097C265.025 371.901 267.785 373.647 270.692 375.336C273.6 377.025 276.609 378.616 279.722 380.11Z" fill="#4D4C4D" />
        <path d="M552.689 337.788C544.146 350.119 531.549 361.171 515.262 370.649C498.975 380.126 479.96 387.477 458.733 392.478C416.325 402.181 372.278 402.181 329.869 392.478C313.442 388.619 298.316 383.363 284.726 376.781C280.716 374.844 276.844 372.796 273.108 370.638C269.372 368.48 265.831 366.237 262.484 363.91C251.136 356.045 242.014 347.282 235.303 337.767C226.916 325.859 222.625 313.285 222.55 300.382C222.474 287.478 226.63 274.909 234.881 263.002C243.436 250.677 256.026 239.613 272.319 230.13C288.611 220.647 307.616 213.313 328.837 208.312C371.246 198.609 415.293 198.609 457.701 208.312C478.982 213.313 498.078 220.658 514.474 230.141C530.869 239.624 543.584 250.672 552.268 263.002C560.654 274.909 564.945 287.489 565.015 300.387C565.085 313.285 560.941 325.881 552.689 337.788ZM290.292 360.662C347.729 393.875 440.885 393.875 497.96 360.662C555.035 327.45 554.699 273.399 497.284 240.187C439.869 206.975 346.68 206.964 289.616 240.187C232.552 273.41 232.877 327.456 290.292 360.679V360.662Z" fill="#EAEAE9" />
        <path d="M250.342 403.276L250.234 440.434C250.234 441.571 249.493 442.708 248.013 443.568L248.115 406.41C249.596 405.55 250.336 404.413 250.342 403.276Z" fill="#00B65C" />
        <path d="M44.1167 520.877L44.2193 483.725C44.2193 484.872 44.9758 486.025 46.4835 486.902L46.3809 524.055C44.857 523.156 44.1167 522.003 44.1167 520.877Z" fill="#00C668" />
        <path d="M248.115 406.41L248.013 443.568L83.6023 539.27L83.705 502.112L248.115 406.41Z" fill="#00B65C" />
        <path d="M72.8271 502.112L72.7244 539.27L46.3701 524.028L46.4782 486.875L72.8271 502.112Z" fill="#00C668" />
        <path d="M83.7049 502.112L83.5969 539.27C80.614 541.007 75.7181 541.002 72.719 539.27L72.827 502.112C75.8261 503.849 80.7221 503.849 83.7049 502.112Z" fill="#00C668" />
        <path d="M248.082 400.099C251.081 401.831 251.097 404.678 248.115 406.41L83.7041 502.112C80.7212 503.849 75.8253 503.849 72.8262 502.112L46.4721 486.875C43.4676 485.138 43.4513 482.301 46.4396 480.564L210.85 384.862C213.827 383.125 218.723 383.125 221.728 384.862L223.787 386.048L246.029 398.914L248.082 400.099Z" fill="#00D17D" />
        <g opacity="0.1">
            <g opacity="0.1">
                <path opacity="0.1" d="M424.419 301.87C407.262 291.949 379.535 291.949 362.486 301.87C345.437 311.791 345.529 327.851 362.686 337.799C379.843 347.748 407.576 347.721 424.619 337.799C441.663 327.878 441.576 311.819 424.419 301.865V301.87Z" fill="black" />
            </g>
        </g>
        <path d="M395.125 234.006C390.91 231.556 384.88 232.597 377.033 237.129C360.772 246.533 352.666 260.844 352.716 280.062C352.742 289.361 354.867 295.369 359.093 298.087C359.222 298.173 359.352 298.249 359.482 298.325L396.428 319.835L396.044 319.597C391.825 316.879 389.7 310.871 389.667 301.572C389.613 282.346 397.719 268.035 413.984 258.639C421.838 254.1 427.869 253.059 432.076 255.516L395.125 234.006Z" fill="url(#paint0_linear_508:1390)" />
        <path d="M413.979 258.645C421.944 254.04 428.036 253.033 432.255 255.624C436.473 258.215 438.593 264.097 438.615 273.27C438.702 282.066 436.525 290.736 432.293 298.444C428.081 306.167 421.793 312.554 414.141 316.879C406.288 321.422 400.257 322.325 396.049 319.586C391.842 316.847 389.716 310.839 389.673 301.562C389.619 282.347 397.721 268.041 413.979 258.645Z" fill="#BBDAE7" />
        <path d="M397.519 249.578L360.568 228.074L360.536 215.857L397.481 237.367L397.519 249.578Z" fill="#F4FAFC" />
        <path d="M414.023 46.9062L450.968 68.4162C455.77 71.2091 458.186 77.3056 458.215 86.7056C458.216 95.9963 456.291 105.186 452.562 113.693C448.765 122.527 440.299 136.733 427.165 156.313C416.123 172.641 408.406 186.728 404.015 198.575C399.623 210.421 397.444 223.352 397.476 237.367L360.53 215.863C360.487 201.847 362.667 188.917 367.069 177.07C371.471 165.224 379.186 151.136 390.213 134.808C403.334 115.229 411.8 101.022 415.611 92.1886C419.344 83.6808 421.271 74.4888 421.269 65.1956C421.244 55.8065 418.828 49.71 414.023 46.9062Z" fill="#F4FAFC" />
        <path d="M443.381 3.88105L480.332 25.3856C479.097 24.6726 477.807 24.059 476.474 23.5507L439.528 2.04614C440.862 2.54888 442.15 3.16267 443.381 3.88105Z" fill="#F4FAFC" />
        <path d="M366.756 123.918L329.81 102.408L315.776 76.8655L352.727 98.37L366.756 123.918Z" fill="#DAEBF2" />
        <path d="M352.722 98.3699L315.776 76.8654C338.18 49.4881 362.214 28.3787 387.879 13.5371C409.555 1.00139 426.772 -2.83258 439.528 2.03521L476.474 23.5397C463.721 18.6683 446.505 22.5023 424.825 35.0417C399.164 49.8904 375.13 70.9998 352.722 98.3699Z" fill="#F4FAFC" />
        <path d="M476.474 23.5505C489.234 28.4219 495.643 41.6126 495.701 63.1226C495.757 72.4436 494.554 81.7294 492.124 90.7272C489.427 100.306 485.749 109.581 481.148 118.402C476.245 128.001 467.779 141.691 455.751 159.473C445.494 174.723 438.63 186.41 435.157 194.537C431.684 202.663 429.966 211.879 430.002 222.185L430.028 230.775L397.525 249.578L397.492 237.367C397.453 223.359 399.632 210.428 404.031 198.575C408.43 186.721 416.146 172.633 427.181 156.312C440.301 136.74 448.767 122.534 452.579 113.693C456.307 105.186 458.232 95.9963 458.231 86.7056C458.206 76.0209 455.086 69.6015 448.872 67.4473C442.657 65.2931 433.739 67.588 422.117 74.3322C411.537 80.4704 401.738 87.8712 392.937 96.3726C383.988 104.997 375.265 114.187 366.766 123.945L352.717 98.3969C375.124 71.0197 399.158 49.9103 424.819 35.0687C446.503 22.5222 463.721 18.6827 476.474 23.5505Z" fill="#BBDAE7" />
    </g>
    <defs>
        <linearGradient id="paint0_linear_508:1390" x1="406.511" y1="230.791" x2="367.352" y2="316.062" gradientUnits="userSpaceOnUse">
            <stop stop-color="white" />
            <stop offset="1" stop-color="#F2F2F1" />
        </linearGradient>
        <clipPath id="clip0_508:1390">
            <rect width="797" height="580" fill="white" />
        </clipPath>
    </defs>
</svg>
    