<svg width="1920" height="1080" viewBox="0 0 1920 1080" fill="none" xmlns="http://www.w3.org/2000/svg">
<rect x="1" y="-3" width="1932" height="1094" fill="#00DB96" fill-opacity="0.03"/>
<path opacity="0.1" d="M292.397 865.517C380.974 865.517 452.779 849.228 452.779 829.133C452.779 809.038 380.974 792.748 292.397 792.748C203.82 792.748 132.014 809.038 132.014 829.133C132.014 849.228 203.82 865.517 292.397 865.517Z" fill="#1B0B2E"/>
<path d="M142.978 587.732C116.786 665.944 143.407 700.737 188.854 801.566C194.55 814.204 203.175 823.069 212.993 826.682C269.217 847.405 325.442 847.336 381.666 826.475C391.214 822.91 399.679 813.981 405.264 801.582C450.742 700.785 477.285 665.944 451.093 587.732H142.978Z" fill="#FF7878"/>
<path opacity="0.5" d="M223.511 587.732H142.978C116.786 665.944 143.407 700.737 188.854 801.566C194.55 814.204 203.175 823.069 212.993 826.682C240.021 836.863 268.656 842.108 297.536 842.168C228.492 775.591 220.711 659.578 223.511 587.732Z" fill="#755654"/>
<path opacity="0.5" d="M136.008 613.039C151.395 624.069 217.639 632.377 297.043 632.377C376.447 632.377 442.675 624.069 458.062 613.039C456.237 604.474 453.909 596.024 451.092 587.732H142.978C140.159 596.023 137.832 604.474 136.008 613.039Z" fill="#755654"/>
<path d="M297.043 587.748C387.835 587.748 461.436 576.895 461.436 563.508C461.436 550.12 387.835 539.267 297.043 539.267C206.251 539.267 132.65 550.12 132.65 563.508C132.65 576.895 206.251 587.748 297.043 587.748Z" fill="#756BCF"/>
<path d="M297.043 539.267C206.246 539.267 132.635 550.122 132.635 563.508V597.807C132.639 598.236 132.714 598.66 132.858 599.064C137.313 611.797 209.111 622.047 297.043 622.047C387.824 622.047 461.436 611.193 461.436 597.807V563.508C461.436 550.122 387.824 539.267 297.043 539.267Z" fill="#FF7878"/>
<path opacity="0.5" d="M132.858 599.096C135.674 607.166 165.24 614.185 208.745 618.196C208.485 592.962 209.765 567.735 212.579 542.657C164.683 546.891 132.635 554.626 132.635 563.46V597.759C132.639 598.188 132.714 598.613 132.858 599.017V599.096Z" fill="#755654"/>
<path d="M297.043 580.761C380.839 580.761 448.769 572.188 448.769 561.614C448.769 551.039 380.839 542.466 297.043 542.466C213.247 542.466 145.317 551.039 145.317 561.614C145.317 572.188 213.247 580.761 297.043 580.761Z" fill="#755654"/>
<path d="M266.31 397.568C280.559 367.553 267.784 331.667 237.775 317.414C207.767 303.162 171.889 315.94 157.64 345.956C143.391 375.971 156.166 411.857 186.175 426.109C216.183 440.362 252.061 427.583 266.31 397.568Z" fill="#0EAA55"/>
<g style="mix-blend-mode:multiply" opacity="0.35">
<path d="M163.505 384.052C156.822 365.287 158.874 346.108 167.547 331.163C158.849 340.699 153.449 352.781 152.143 365.623C150.837 378.465 153.695 391.386 160.296 402.479C166.896 413.571 176.888 422.246 188.795 427.223C200.703 432.199 213.895 433.213 226.423 430.114C199.642 430.178 173.45 411.969 163.505 384.052Z" fill="#2C6A5D"/>
</g>
<path d="M448.492 411.342C479.443 381.902 483.864 336.297 458.368 309.48C432.872 282.663 387.113 284.788 356.162 314.228C325.211 343.667 320.79 389.272 346.286 416.09C371.782 442.907 417.541 440.781 448.492 411.342Z" fill="#0EAA55"/>
<g style="mix-blend-mode:multiply" opacity="0.35">
<path d="M346.276 416.139C361.68 432.342 384.466 437.961 406.935 433.409C362.905 406.51 362.507 341.413 365.881 306.238C362.459 308.656 359.215 311.315 356.174 314.196C325.208 343.721 320.784 389.337 346.276 416.139Z" fill="#2C6A5D"/>
</g>
<path d="M389.098 332.973C412 331.291 428.611 303.305 426.2 270.465C423.789 237.625 403.269 212.367 380.367 214.049C357.465 215.731 340.853 243.717 343.265 276.557C345.676 309.397 366.196 334.655 389.098 332.973Z" fill="#0EAA55"/>
<g style="mix-blend-mode:multiply" opacity="0.35">
<path d="M349.173 270.602C352.355 240.122 370.973 216.693 391.946 215.5C388.223 214.257 384.292 213.76 380.377 214.036C357.479 215.723 340.866 243.703 343.269 276.539C344.717 296.084 352.562 312.955 363.526 323.046C352.848 311.363 346.961 291.914 349.173 270.602Z" fill="#2C6A5D"/>
</g>
<path d="M396.64 562.648C396.64 560.42 396.64 558.207 396.64 555.995V553.894C396.64 551.968 396.64 550.042 396.512 548.133C396.512 547.798 396.512 547.464 396.512 547.146C392.884 427.551 349.825 333.121 297.218 333.121C244.611 333.121 201.361 427.535 197.733 547.13C197.733 547.448 197.733 547.782 197.733 548.101C197.733 550.027 197.637 551.952 197.605 553.894C197.605 554.579 197.605 555.279 197.605 555.963C197.605 558.192 197.605 560.404 197.605 562.632V563.492C197.605 567.736 197.653 571.927 197.749 576.066C230.785 579.357 263.971 580.919 297.17 580.745C330.365 580.919 363.545 579.357 396.576 576.066C396.672 571.895 396.719 567.704 396.719 563.492L396.64 562.648Z" fill="#0EAA55"/>
<g style="mix-blend-mode:multiply" opacity="0.35">
<path d="M317.602 572.039C279.587 571.784 244.675 570.336 217.814 567.518C217.369 563.497 216.971 559.454 216.621 555.39C216.621 555.104 216.621 554.833 216.621 554.563C216.446 552.414 216.287 550.265 216.128 548.196C216.128 547.528 216.032 546.859 216 546.191C215.873 544.329 215.746 542.466 215.65 540.604C215.65 540.302 215.65 539.983 215.65 539.665C210.145 438.693 236.416 356.326 278.314 337.307C234.459 356.661 200.915 442.194 197.733 547.13C197.733 547.448 197.733 547.782 197.733 548.101C197.733 550.027 197.637 551.952 197.605 553.894C197.605 554.579 197.605 555.279 197.605 555.963C197.605 558.192 197.605 560.404 197.605 562.632V563.492C197.605 567.736 197.653 571.927 197.749 576.066C230.785 579.357 263.971 580.919 297.17 580.745C332.433 580.745 364.894 579.153 390.657 576.67C369.589 575.333 344.51 572.214 317.602 572.039Z" fill="#2C6A5D"/>
</g>
<path d="M192.37 363.218C192.37 362.27 192.088 361.344 191.56 360.557C191.032 359.77 190.281 359.159 189.404 358.8C188.527 358.441 187.563 358.351 186.635 358.542C185.707 358.732 184.857 359.195 184.192 359.871C183.528 360.547 183.08 361.405 182.905 362.336C182.73 363.268 182.836 364.23 183.209 365.101C183.583 365.972 184.207 366.712 185.002 367.227C185.798 367.742 186.728 368.009 187.676 367.993C188.928 367.972 190.122 367.46 191 366.567C191.878 365.673 192.37 364.471 192.37 363.218Z" fill="#22574C"/>
<path d="M231.293 336.256C231.293 335.312 231.013 334.389 230.488 333.603C229.964 332.818 229.218 332.206 228.346 331.845C227.473 331.483 226.514 331.389 225.588 331.573C224.662 331.757 223.811 332.212 223.143 332.88C222.476 333.548 222.021 334.398 221.837 335.325C221.653 336.251 221.747 337.211 222.108 338.083C222.47 338.956 223.082 339.702 223.867 340.226C224.652 340.751 225.575 341.031 226.519 341.031C227.785 341.031 228.999 340.528 229.894 339.633C230.79 338.737 231.293 337.522 231.293 336.256Z" fill="#22574C"/>
<path d="M207.582 392.822C207.582 391.878 207.302 390.955 206.778 390.17C206.253 389.384 205.508 388.772 204.636 388.411C203.763 388.05 202.803 387.955 201.877 388.139C200.951 388.323 200.101 388.778 199.433 389.446C198.765 390.114 198.311 390.965 198.127 391.891C197.942 392.817 198.037 393.777 198.398 394.65C198.76 395.522 199.371 396.268 200.157 396.792C200.942 397.317 201.865 397.597 202.809 397.597C204.075 397.597 205.289 397.094 206.184 396.199C207.079 395.303 207.582 394.089 207.582 392.822Z" fill="#22574C"/>
<path d="M362.38 361.213C363.293 361.474 364.263 361.457 365.167 361.164C366.07 360.871 366.866 360.315 367.452 359.567C368.037 358.82 368.387 357.914 368.455 356.967C368.524 356.019 368.308 355.073 367.836 354.248C367.364 353.424 366.657 352.759 365.805 352.339C364.953 351.919 363.995 351.763 363.054 351.891C362.113 352.018 361.231 352.423 360.521 353.055C359.812 353.686 359.306 354.515 359.07 355.435C358.761 356.64 358.934 357.917 359.552 358.996C360.17 360.075 361.185 360.87 362.38 361.213Z" fill="#22574C"/>
<g style="mix-blend-mode:screen">
<path d="M432.491 550.488C447.401 553.672 455.978 557.539 455.978 561.63C455.978 573.519 382.78 583.164 292.603 583.164C236.225 583.164 186.514 579.392 157.156 573.614C185.798 579.854 237.705 584.024 297.043 584.024C387.267 584.024 460.417 574.378 460.417 562.489C460.417 558.064 450.122 553.926 432.491 550.488Z" fill="#755654"/>
</g>
<path d="M246.154 515.298C246.154 514.353 245.874 513.43 245.35 512.645C244.825 511.86 244.08 511.248 243.208 510.886C242.335 510.525 241.375 510.43 240.449 510.614C239.523 510.799 238.673 511.253 238.005 511.921C237.338 512.589 236.883 513.44 236.699 514.366C236.514 515.292 236.609 516.252 236.97 517.125C237.332 517.997 237.943 518.743 238.729 519.268C239.514 519.792 240.436 520.072 241.381 520.072C242.647 520.072 243.861 519.569 244.756 518.674C245.651 517.778 246.154 516.564 246.154 515.298Z" fill="#22574C"/>
<path d="M285.061 488.335C285.061 487.391 284.781 486.468 284.257 485.683C283.732 484.897 282.986 484.285 282.114 483.924C281.242 483.563 280.282 483.468 279.356 483.652C278.43 483.837 277.579 484.291 276.912 484.959C276.244 485.627 275.79 486.478 275.605 487.404C275.421 488.33 275.516 489.29 275.877 490.163C276.238 491.035 276.85 491.781 277.635 492.306C278.42 492.83 279.343 493.11 280.287 493.11C281.553 493.11 282.768 492.607 283.663 491.712C284.558 490.816 285.061 489.602 285.061 488.335Z" fill="#22574C"/>
<path d="M261.383 544.886C261.383 543.941 261.103 543.018 260.578 542.233C260.054 541.448 259.308 540.836 258.436 540.474C257.564 540.113 256.604 540.018 255.678 540.203C254.752 540.387 253.901 540.842 253.234 541.509C252.566 542.177 252.111 543.028 251.927 543.954C251.743 544.88 251.838 545.841 252.199 546.713C252.56 547.586 253.172 548.331 253.957 548.856C254.742 549.38 255.665 549.661 256.609 549.661C257.875 549.661 259.09 549.158 259.985 548.262C260.88 547.367 261.383 546.152 261.383 544.886Z" fill="#22574C"/>
<path d="M321.071 363.743C321.983 364.008 322.954 363.994 323.859 363.703C324.764 363.413 325.561 362.859 326.149 362.112C326.737 361.366 327.089 360.461 327.16 359.513C327.231 358.565 327.017 357.618 326.547 356.792C326.076 355.966 325.369 355.3 324.518 354.878C323.666 354.457 322.708 354.299 321.766 354.425C320.825 354.551 319.942 354.955 319.231 355.586C318.52 356.217 318.014 357.045 317.777 357.966C317.467 359.168 317.638 360.444 318.253 361.523C318.868 362.601 319.878 363.398 321.071 363.743Z" fill="#22574C"/>
<path d="M335.329 398.982C336.241 399.245 337.211 399.231 338.115 398.94C339.018 398.65 339.815 398.096 340.403 397.35C340.991 396.604 341.343 395.7 341.414 394.753C341.485 393.806 341.273 392.86 340.803 392.034C340.334 391.209 339.629 390.542 338.779 390.119C337.929 389.696 336.972 389.537 336.031 389.66C335.09 389.784 334.207 390.186 333.495 390.815C332.783 391.443 332.275 392.269 332.035 393.188C331.72 394.393 331.889 395.673 332.504 396.755C333.119 397.837 334.133 398.636 335.329 398.982Z" fill="#22574C"/>
<path d="M417.485 414.468C418.398 414.73 419.368 414.713 420.272 414.42C421.175 414.127 421.971 413.571 422.557 412.823C423.142 412.075 423.492 411.17 423.56 410.222C423.629 409.275 423.413 408.328 422.941 407.504C422.469 406.68 421.762 406.015 420.91 405.595C420.058 405.175 419.1 405.019 418.159 405.146C417.218 405.274 416.336 405.679 415.626 406.31C414.917 406.942 414.411 407.771 414.175 408.691C413.866 409.895 414.039 411.173 414.657 412.252C415.275 413.331 416.29 414.126 417.485 414.468Z" fill="#22574C"/>
<path d="M393.998 390.785C394.911 391.046 395.882 391.03 396.785 390.737C397.688 390.443 398.484 389.888 399.07 389.14C399.655 388.392 400.005 387.486 400.073 386.539C400.142 385.591 399.926 384.645 399.454 383.821C398.982 382.996 398.275 382.332 397.423 381.912C396.571 381.492 395.613 381.335 394.672 381.463C393.731 381.59 392.849 381.996 392.139 382.627C391.43 383.258 390.924 384.087 390.688 385.007C390.379 386.212 390.552 387.49 391.17 388.569C391.788 389.648 392.803 390.443 393.998 390.785Z" fill="#22574C"/>
<path d="M390.72 327.582C391.633 327.843 392.604 327.826 393.507 327.533C394.41 327.24 395.206 326.684 395.792 325.936C396.378 325.189 396.727 324.283 396.795 323.336C396.864 322.388 396.648 321.442 396.176 320.617C395.704 319.793 394.997 319.129 394.145 318.709C393.293 318.289 392.335 318.132 391.394 318.26C390.453 318.387 389.571 318.792 388.861 319.424C388.151 320.055 387.646 320.884 387.41 321.804C387.101 323.009 387.274 324.286 387.892 325.365C388.51 326.444 389.525 327.239 390.72 327.582Z" fill="#22574C"/>
<path d="M429.913 363.743C430.826 364.005 431.796 363.988 432.7 363.695C433.603 363.402 434.399 362.846 434.984 362.098C435.57 361.35 435.92 360.445 435.988 359.497C436.057 358.55 435.841 357.603 435.369 356.779C434.897 355.955 434.189 355.29 433.338 354.87C432.486 354.45 431.528 354.294 430.587 354.421C429.645 354.549 428.764 354.954 428.054 355.585C427.344 356.217 426.839 357.046 426.603 357.966C426.294 359.17 426.467 360.448 427.085 361.527C427.703 362.606 428.718 363.401 429.913 363.743Z" fill="#22574C"/>
<path d="M434.623 313.575C435.535 313.836 436.505 313.819 437.407 313.525C438.31 313.232 439.104 312.677 439.69 311.93C440.275 311.183 440.625 310.278 440.694 309.332C440.763 308.385 440.548 307.439 440.078 306.615C439.607 305.791 438.901 305.126 438.051 304.705C437.2 304.284 436.244 304.126 435.303 304.251C434.362 304.376 433.48 304.779 432.77 305.408C432.059 306.037 431.552 306.863 431.313 307.782C430.999 308.989 431.17 310.27 431.788 311.353C432.407 312.436 433.424 313.233 434.623 313.575Z" fill="#22574C"/>
<path d="M370.973 299.999C371.886 300.26 372.856 300.244 373.76 299.951C374.663 299.657 375.459 299.102 376.045 298.354C376.63 297.606 376.98 296.7 377.048 295.753C377.117 294.805 376.901 293.859 376.429 293.035C375.957 292.21 375.25 291.546 374.398 291.126C373.546 290.706 372.588 290.55 371.647 290.677C370.706 290.804 369.824 291.21 369.114 291.841C368.404 292.473 367.899 293.301 367.663 294.221C367.354 295.426 367.527 296.704 368.145 297.783C368.763 298.862 369.778 299.657 370.973 299.999Z" fill="#22574C"/>
<path d="M408.065 274.597C408.978 274.861 409.949 274.847 410.853 274.557C411.758 274.266 412.556 273.712 413.144 272.966C413.732 272.219 414.084 271.314 414.154 270.366C414.225 269.418 414.012 268.471 413.541 267.645C413.07 266.82 412.364 266.153 411.512 265.732C410.661 265.31 409.703 265.152 408.761 265.278C407.819 265.404 406.936 265.808 406.225 266.439C405.515 267.07 405.008 267.899 404.771 268.819C404.461 270.022 404.632 271.297 405.247 272.376C405.862 273.454 406.873 274.251 408.065 274.597Z" fill="#22574C"/>
<path d="M390.72 237.655C391.633 237.917 392.604 237.9 393.507 237.607C394.41 237.314 395.206 236.758 395.792 236.01C396.378 235.262 396.727 234.357 396.795 233.409C396.864 232.462 396.648 231.515 396.176 230.691C395.704 229.867 394.997 229.202 394.145 228.782C393.293 228.362 392.335 228.206 391.394 228.333C390.453 228.461 389.571 228.866 388.861 229.497C388.151 230.129 387.646 230.958 387.41 231.878C387.101 233.082 387.274 234.36 387.892 235.439C388.51 236.518 389.525 237.313 390.72 237.655Z" fill="#22574C"/>
<path d="M364.56 265.174C365.473 265.436 366.443 265.419 367.347 265.126C368.25 264.833 369.046 264.277 369.631 263.529C370.217 262.781 370.567 261.876 370.635 260.928C370.704 259.981 370.488 259.034 370.016 258.21C369.544 257.386 368.836 256.721 367.985 256.301C367.133 255.881 366.175 255.725 365.234 255.852C364.292 255.98 363.411 256.385 362.701 257.016C361.991 257.648 361.486 258.477 361.25 259.397C360.941 260.601 361.114 261.879 361.732 262.958C362.35 264.037 363.365 264.832 364.56 265.174Z" fill="#22574C"/>
<path d="M250.69 398.982C251.602 399.245 252.572 399.231 253.476 398.94C254.38 398.65 255.176 398.096 255.764 397.35C256.352 396.604 256.704 395.7 256.775 394.753C256.846 393.806 256.634 392.86 256.164 392.034C255.695 391.209 254.99 390.542 254.14 390.119C253.29 389.696 252.333 389.537 251.392 389.66C250.451 389.784 249.568 390.186 248.856 390.815C248.144 391.443 247.636 392.269 247.396 393.188C247.082 394.393 247.25 395.673 247.865 396.755C248.481 397.837 249.494 398.636 250.69 398.982Z" fill="#22574C"/>
<path d="M330.618 452.89C331.531 453.155 332.502 453.141 333.406 452.85C334.311 452.56 335.109 452.006 335.697 451.259C336.285 450.513 336.637 449.607 336.707 448.66C336.778 447.712 336.565 446.764 336.094 445.939C335.623 445.113 334.917 444.447 334.065 444.025C333.214 443.603 332.256 443.445 331.314 443.571C330.372 443.697 329.489 444.102 328.778 444.733C328.068 445.364 327.561 446.192 327.324 447.113C327.014 448.315 327.185 449.591 327.8 450.669C328.415 451.748 329.426 452.545 330.618 452.89Z" fill="#22574C"/>
<path d="M299.286 406.781C300.199 407.042 301.17 407.025 302.073 406.732C302.977 406.439 303.772 405.883 304.358 405.136C304.944 404.388 305.293 403.482 305.362 402.535C305.43 401.587 305.215 400.641 304.742 399.816C304.27 398.992 303.563 398.328 302.711 397.908C301.859 397.488 300.901 397.331 299.96 397.459C299.019 397.586 298.137 397.991 297.428 398.623C296.718 399.254 296.213 400.083 295.977 401.003C295.667 402.208 295.84 403.485 296.458 404.564C297.077 405.643 298.091 406.438 299.286 406.781Z" fill="#22574C"/>
<path d="M233.774 463.554C234.687 463.814 235.656 463.797 236.559 463.504C237.461 463.211 238.256 462.655 238.842 461.908C239.427 461.161 239.777 460.257 239.846 459.31C239.915 458.363 239.7 457.417 239.229 456.593C238.759 455.769 238.053 455.104 237.203 454.683C236.352 454.262 235.395 454.104 234.455 454.229C233.514 454.355 232.632 454.757 231.921 455.386C231.211 456.015 230.703 456.842 230.465 457.76C230.151 458.967 230.321 460.249 230.94 461.331C231.558 462.414 232.576 463.212 233.774 463.554Z" fill="#22574C"/>
<path d="M343.253 507.737C344.166 507.999 345.137 507.982 346.04 507.689C346.943 507.396 347.739 506.84 348.325 506.092C348.91 505.344 349.26 504.439 349.328 503.491C349.397 502.544 349.181 501.597 348.709 500.773C348.237 499.949 347.53 499.284 346.678 498.864C345.826 498.444 344.868 498.288 343.927 498.415C342.986 498.543 342.104 498.948 341.394 499.579C340.685 500.211 340.18 501.039 339.943 501.96C339.634 503.164 339.807 504.442 340.425 505.521C341.043 506.6 342.058 507.395 343.253 507.737Z" fill="#22574C"/>
<path d="M367.997 465.289C368.907 465.575 369.881 465.582 370.795 465.309C371.708 465.036 372.519 464.496 373.123 463.758C373.727 463.02 374.096 462.118 374.183 461.169C374.27 460.219 374.07 459.265 373.61 458.43C373.15 457.594 372.451 456.916 371.602 456.482C370.753 456.048 369.793 455.878 368.847 455.995C367.9 456.111 367.01 456.508 366.292 457.135C365.573 457.762 365.059 458.589 364.814 459.511C364.5 460.699 364.655 461.962 365.248 463.038C365.841 464.114 366.825 464.92 367.997 465.289Z" fill="#22574C"/>
<path d="M370.67 555.024C371.583 555.289 372.554 555.275 373.458 554.984C374.363 554.694 375.161 554.14 375.749 553.393C376.337 552.647 376.689 551.741 376.76 550.794C376.83 549.846 376.617 548.899 376.146 548.073C375.675 547.247 374.969 546.581 374.117 546.159C373.266 545.737 372.308 545.579 371.366 545.705C370.424 545.832 369.541 546.236 368.83 546.867C368.12 547.498 367.613 548.326 367.376 549.247C367.066 550.449 367.237 551.725 367.852 552.803C368.467 553.882 369.478 554.679 370.67 555.024Z" fill="#22574C"/>
<path d="M291.092 517.16C292.005 517.421 292.975 517.404 293.879 517.111C294.782 516.818 295.578 516.262 296.163 515.514C296.749 514.766 297.099 513.861 297.167 512.913C297.236 511.966 297.02 511.02 296.548 510.195C296.076 509.371 295.368 508.706 294.516 508.286C293.665 507.866 292.707 507.71 291.766 507.838C290.824 507.965 289.943 508.37 289.233 509.002C288.523 509.633 288.018 510.462 287.782 511.382C287.473 512.587 287.646 513.864 288.264 514.943C288.882 516.022 289.897 516.817 291.092 517.16Z" fill="#22574C"/>
<path d="M321.723 559.735C322.636 560 323.607 559.986 324.511 559.695C325.416 559.405 326.214 558.851 326.802 558.104C327.39 557.358 327.742 556.453 327.812 555.505C327.883 554.557 327.67 553.61 327.199 552.784C326.728 551.958 326.022 551.292 325.17 550.87C324.319 550.448 323.361 550.291 322.419 550.417C321.477 550.543 320.594 550.947 319.883 551.578C319.173 552.209 318.666 553.037 318.429 553.958C318.12 555.16 318.29 556.436 318.905 557.515C319.52 558.593 320.531 559.39 321.723 559.735Z" fill="#22574C"/>
<path d="M291.092 555.024C292.005 555.286 292.975 555.269 293.879 554.976C294.782 554.683 295.578 554.127 296.163 553.379C296.749 552.631 297.099 551.726 297.167 550.778C297.236 549.83 297.02 548.884 296.548 548.06C296.076 547.236 295.368 546.571 294.516 546.151C293.665 545.731 292.707 545.575 291.766 545.702C290.824 545.829 289.943 546.235 289.233 546.866C288.523 547.498 288.018 548.326 287.782 549.247C287.473 550.451 287.646 551.729 288.264 552.808C288.882 553.887 289.897 554.682 291.092 555.024Z" fill="#22574C"/>
<path d="M277.519 441.16C278.432 441.421 279.402 441.404 280.305 441.111C281.209 440.818 282.004 440.262 282.59 439.514C283.176 438.767 283.525 437.861 283.594 436.914C283.662 435.966 283.447 435.02 282.975 434.195C282.502 433.371 281.795 432.706 280.943 432.286C280.091 431.866 279.134 431.71 278.192 431.838C277.251 431.965 276.369 432.37 275.66 433.002C274.95 433.633 274.445 434.462 274.209 435.382C273.9 436.587 274.073 437.864 274.691 438.943C275.309 440.022 276.323 440.817 277.519 441.16Z" fill="#22574C"/>
<path d="M288.53 370.635C289.443 370.896 290.412 370.878 291.315 370.585C292.217 370.292 293.012 369.736 293.597 368.989C294.183 368.242 294.532 367.338 294.601 366.391C294.67 365.444 294.456 364.499 293.985 363.675C293.514 362.85 292.809 362.185 291.958 361.764C291.108 361.343 290.151 361.185 289.21 361.31C288.27 361.436 287.388 361.838 286.677 362.467C285.966 363.096 285.459 363.923 285.22 364.842C284.906 366.048 285.077 367.33 285.695 368.412C286.314 369.495 287.331 370.293 288.53 370.635Z" fill="#22574C"/>
<path opacity="0.1" d="M1798 986.624C1876.26 986.624 1939.71 978.458 1939.71 968.384C1939.71 958.31 1876.26 950.144 1798 950.144C1719.73 950.144 1656.28 958.31 1656.28 968.384C1656.28 978.458 1719.73 986.624 1798 986.624Z" fill="#1B0B2E"/>
<path d="M1893.45 668.268H1893.15V708.472H1893.49C1903.43 708.317 1913.3 710.141 1922.53 713.836C1931.76 717.532 1940.17 723.026 1947.25 729.999C1954.34 736.972 1959.97 745.285 1963.82 754.455C1967.67 763.625 1969.66 773.468 1969.67 783.413C1969.68 793.357 1967.71 803.205 1963.88 812.383C1960.06 821.56 1954.44 829.885 1947.37 836.874C1940.29 843.862 1931.9 849.374 1922.68 853.089C1913.46 856.804 1903.59 858.648 1893.65 858.514H1893.15V898.719H1893.69C1924.01 898.332 1952.96 886.006 1974.25 864.414C1995.54 842.821 2007.46 813.703 2007.43 783.375C2007.4 753.047 1995.42 723.954 1974.08 702.406C1952.74 680.858 1923.77 668.592 1893.45 668.268Z" fill="white"/>
<g style="mix-blend-mode:multiply">
<g style="mix-blend-mode:multiply" opacity="0.1">
<path d="M1835.31 684.105V744.73C1846.59 723.847 1866.99 708.504 1893.49 708.472C1903.71 708.459 1913.82 710.539 1923.21 714.584V672.152C1908.5 668.229 1893.15 667.265 1878.06 669.317C1862.97 671.369 1848.44 676.395 1835.31 684.105Z" fill="#3D2855"/>
</g>
<g style="mix-blend-mode:multiply" opacity="0.1">
<path d="M1923.21 894.851V852.418C1913.87 856.434 1903.81 858.508 1893.65 858.514C1867.09 858.514 1846.62 843.155 1835.31 822.225V882.882C1848.45 890.587 1862.98 895.611 1878.06 897.666C1893.15 899.72 1908.5 898.763 1923.21 894.851Z" fill="#3D2855"/>
</g>
</g>
<path d="M1893.57 624.562C1893.57 624.483 1893.57 624.403 1893.57 624.323C1893.26 624.73 1892.86 625.061 1892.41 625.292C1891.95 625.524 1891.45 625.65 1890.94 625.66C1890.22 625.656 1889.52 625.416 1888.94 624.976C1888.37 624.537 1887.95 623.922 1887.76 623.225L1887.38 622.302C1887.23 621.901 1887.18 621.469 1887.23 621.045H1886.71L1669.76 621.268C1668.87 621.268 1668 621.442 1667.18 621.78C1666.37 622.119 1665.63 622.615 1665 623.241C1664.38 623.866 1663.88 624.608 1663.55 625.425C1663.21 626.242 1663.04 627.117 1663.04 628L1663.38 960.123C1663.38 967.333 1714.92 973.174 1778.49 973.174C1842.06 973.174 1893.58 967.333 1893.58 960.123C1893.59 960.044 1893.59 959.964 1893.58 959.884H1893.82L1893.57 624.562Z" fill="white"/>
<g style="mix-blend-mode:multiply" opacity="0.1">
<path d="M1893.57 624.562C1893.57 624.562 1893.57 624.419 1893.57 624.339C1893.25 624.741 1892.86 625.068 1892.4 625.296C1891.95 625.525 1891.45 625.649 1890.94 625.66C1890.24 625.667 1889.55 625.449 1888.97 625.037C1888.4 624.624 1887.98 624.04 1887.76 623.368C1890.16 694.546 1886.92 869.895 1824.35 915.479C1767.68 956.749 1697.79 952.882 1663.3 947.534V960.123C1663.3 967.333 1714.84 973.175 1778.41 973.175C1841.98 973.175 1893.5 967.333 1893.5 960.123C1893.51 960.044 1893.51 959.964 1893.5 959.885H1893.74L1893.57 624.562Z" fill="#3D2855"/>
</g>
<path d="M1778.47 636.038C1751.64 636.202 1724.81 634.964 1698.11 632.329C1666.14 628.78 1664.97 624.61 1664.95 624.578C1664.93 624.546 1666.14 620.392 1698.11 616.843C1751.57 611.876 1805.37 611.876 1858.83 616.843C1890.81 620.392 1891.99 624.546 1891.99 624.594C1891.99 624.642 1890.81 628.78 1858.83 632.329C1832.12 634.965 1805.3 636.202 1778.47 636.038Z" fill="#806361"/>
<path d="M1778.47 614.71C1807.22 614.71 1834.71 615.92 1855.87 618.116C1878.93 620.519 1886.82 623.257 1889.41 624.578C1886.82 625.899 1878.93 628.653 1855.87 631.04C1834.71 633.236 1807.22 634.446 1778.47 634.446C1749.72 634.446 1722.22 633.236 1701.07 631.04C1678.01 628.653 1670.12 625.899 1667.53 624.578C1670.12 623.257 1678.01 620.519 1701.07 618.116C1722.22 615.92 1749.72 614.71 1778.47 614.71ZM1778.47 611.527C1714.82 611.527 1663.36 617.368 1663.36 624.578C1663.36 631.788 1714.9 637.629 1778.47 637.629C1842.04 637.629 1893.57 631.788 1893.57 624.578C1893.57 617.368 1842.04 611.527 1778.47 611.527Z" fill="#EBECEE"/>
<g style="mix-blend-mode:multiply" opacity="0.1">
<path d="M1763.66 761.728C1763.53 760.009 1762.72 758.412 1761.41 757.287L1734.74 734.384C1734.2 733.919 1733.57 733.567 1732.9 733.349L1728.31 633.077H1725.13L1729.7 733.349C1729.06 733.568 1728.47 733.921 1727.98 734.384L1704.37 757.319C1703.8 757.901 1703.36 758.599 1703.08 759.365C1702.81 760.132 1702.7 760.948 1702.77 761.76L1705.19 798.16C1705.29 799.781 1706 801.304 1707.19 802.417C1708.37 803.529 1709.93 804.147 1711.56 804.144H1760.89C1761.65 804.148 1762.41 803.991 1763.11 803.685C1763.81 803.378 1764.44 802.929 1764.95 802.366C1765.47 801.802 1765.86 801.137 1766.11 800.413C1766.35 799.689 1766.45 798.921 1766.38 798.16L1763.66 761.728Z" fill="#3D2855"/>
</g>
<path d="M1725.88 632.982H1722.62V743.886H1725.88V632.982Z" fill="#D8E4D1"/>
<path d="M1693.74 796.059V760.216C1693.74 759.39 1693.91 758.573 1694.25 757.819C1694.59 757.065 1695.08 756.39 1695.69 755.839L1720.84 733.254C1721.77 732.415 1722.99 731.951 1724.25 731.951C1725.51 731.951 1726.72 732.415 1727.66 733.254L1752.8 755.839C1753.42 756.39 1753.91 757.065 1754.25 757.819C1754.59 758.573 1754.76 759.39 1754.76 760.216V796.059C1754.76 797.618 1754.13 799.112 1753.03 800.213C1751.93 801.314 1750.43 801.932 1748.87 801.932H1699.54C1698 801.911 1696.52 801.284 1695.44 800.185C1694.35 799.086 1693.74 797.605 1693.74 796.059Z" fill="#0EAA55"/>
<path opacity="0.1" d="M1755.16 1358.7H170.777C136.279 1358.7 112.855 1307.77 133.94 1277.75L418.329 872.441H1507.61L1792.01 1277.75C1813.1 1307.8 1789.67 1358.7 1755.16 1358.7Z" fill="#1B0B2E"/>
<path d="M1793.94 1186.85H132.014L418.329 872.441H1507.62L1793.94 1186.85Z" fill="#292851"/>
<path d="M445.396 160H1480.56C1487.73 160 1494.61 162.851 1499.68 167.925C1504.76 172.999 1507.61 179.882 1507.61 187.058V866.202C1507.61 872.5 1505.11 878.54 1500.65 882.993C1496.2 887.447 1490.16 889.949 1483.87 889.949H442.134C439.006 889.965 435.905 889.364 433.009 888.178C430.114 886.992 427.482 885.245 425.264 883.039C423.046 880.832 421.286 878.208 420.084 875.319C418.883 872.429 418.265 869.331 418.265 866.202V187.074C418.263 183.512 418.964 179.986 420.327 176.696C421.691 173.406 423.69 170.418 426.211 167.903C428.731 165.387 431.724 163.394 435.016 162.038C438.308 160.682 441.836 159.99 445.396 160Z" fill="#241F41"/>
<path d="M962.968 191.435C969.067 191.435 974.011 186.489 974.011 180.389C974.011 174.288 969.067 169.343 962.968 169.343C956.869 169.343 951.925 174.288 951.925 180.389C951.925 186.489 956.869 191.435 962.968 191.435Z" fill="#313161"/>
<path d="M1793.94 1186.85H132.014L418.329 872.441H1507.62L1793.94 1186.85Z" fill="#303463"/>
<path d="M29.1712 1172.99L-340.541 1151.17L-19.5212 961.46L278.76 981.61L29.1712 1172.99Z" fill="#303463"/>
<path d="M10.7283 1172.99L-359 1151.17L-37.9641 961.46L260.317 981.61L10.7283 1172.99Z" fill="#EAEAEA"/>
<path d="M6.60703 1155.3L-348.084 1131.81L-41.8149 956.797L244.357 978.14L6.60703 1155.3Z" fill="white"/>
<path d="M-40.6693 1072.94L-202.452 1063.39L-61.9762 980.385L68.5386 989.202L-40.6693 1072.94Z" fill="#DBDBDB"/>
<path d="M1511.33 1026.11H414.621L496.761 910.051H1429.19L1511.33 1026.11Z" fill="#241F41"/>
<path d="M1331.09 1182.81H594.846C592.828 1182.81 590.841 1182.31 589.064 1181.35C587.288 1180.39 585.778 1179 584.672 1177.32C583.567 1175.63 582.899 1173.69 582.731 1171.68C582.562 1169.66 582.898 1167.64 583.708 1165.79L640.293 1036.87C641.239 1034.71 642.798 1032.87 644.777 1031.58C646.757 1030.29 649.07 1029.6 651.432 1029.61H1274.54C1276.9 1029.61 1279.21 1030.29 1281.19 1031.58C1283.16 1032.87 1284.72 1034.71 1285.67 1036.87L1342.24 1165.79C1343.06 1167.64 1343.4 1169.67 1343.23 1171.68C1343.06 1173.7 1342.39 1175.64 1341.29 1177.33C1340.18 1179.02 1338.66 1180.41 1336.88 1181.36C1335.1 1182.32 1333.11 1182.82 1331.09 1182.81Z" fill="#3C4E74"/>
<path d="M534.427 934.164H482.313L496.348 914.157H546.934L534.427 934.164Z" fill="#3C4E74"/>
<path d="M550.705 960.505H463.854L478.955 938.955H563.18L550.705 960.505Z" fill="#3C4E74"/>
<path d="M591.998 934.164H539.9L552.232 914.157H602.835L591.998 934.164Z" fill="#3C4E74"/>
<path d="M610.488 960.505H556.386L568.686 938.955H621.166L610.488 960.505Z" fill="#3C4E74"/>
<path d="M670.288 960.505H616.169L626.671 938.955H679.151L670.288 960.505Z" fill="#3C4E74"/>
<path d="M730.087 960.505H675.969L684.657 938.955H737.121L730.087 960.505Z" fill="#3C4E74"/>
<path d="M789.871 960.505H735.752L742.642 938.955H795.106L789.871 960.505Z" fill="#3C4E74"/>
<path d="M849.67 960.505H795.551L800.612 938.955H853.091L849.67 960.505Z" fill="#3C4E74"/>
<path d="M909.454 960.505H855.352L858.598 938.955H911.077L909.454 960.505Z" fill="#3C4E74"/>
<path d="M969.253 960.505H915.135L916.583 938.955H969.046L969.253 960.505Z" fill="#3C4E74"/>
<path d="M1029.04 960.505H974.934L974.568 938.955H1027.03L1029.04 960.505Z" fill="#3C4E74"/>
<path d="M1088.84 960.505H1034.72L1032.54 938.955H1085.02L1088.84 960.505Z" fill="#3C4E74"/>
<path d="M1148.62 960.505H1094.52L1090.52 938.955H1143L1148.62 960.505Z" fill="#3C4E74"/>
<path d="M1208.42 960.505H1154.3L1148.51 938.955H1200.99L1208.42 960.505Z" fill="#3C4E74"/>
<path d="M1268.2 960.505H1214.1L1206.49 938.955H1258.97L1268.2 960.505Z" fill="#3C4E74"/>
<path d="M1328 960.505H1273.88L1264.48 938.955H1316.94L1328 960.505Z" fill="#3C4E74"/>
<path d="M1387.8 960.505H1333.68L1322.45 938.955H1374.93L1387.8 960.505Z" fill="#3C4E74"/>
<path d="M1459.9 960.505H1393.48L1380.43 938.955H1444.86L1459.9 960.505Z" fill="#3C4E74"/>
<path d="M649.586 934.164H597.472L608.134 914.157H658.736L649.586 934.164Z" fill="#3C4E74"/>
<path d="M707.173 934.164H655.06L664.034 914.157H714.636L707.173 934.164Z" fill="#3C4E74"/>
<path d="M764.745 934.164H712.632L719.935 914.157H770.521L764.745 934.164Z" fill="#3C4E74"/>
<path d="M822.333 934.164H770.219L775.836 914.157H826.422L822.333 934.164Z" fill="#3C4E74"/>
<path d="M879.904 934.164H827.79L831.737 914.157H882.322L879.904 934.164Z" fill="#3C4E74"/>
<path d="M937.491 934.164H885.378L887.637 914.157H938.223L937.491 934.164Z" fill="#3C4E74"/>
<path d="M995.063 934.164H942.966L943.539 914.157H994.125L995.063 934.164Z" fill="#3C4E74"/>
<path d="M1052.65 934.164H1000.54L999.439 914.157H1050.03L1052.65 934.164Z" fill="#3C4E74"/>
<path d="M1110.22 934.164H1058.13L1055.34 914.157H1105.93L1110.22 934.164Z" fill="#3C4E74"/>
<path d="M1167.81 934.164H1115.7L1111.24 914.157H1161.83L1167.81 934.164Z" fill="#3C4E74"/>
<path d="M1225.38 934.164H1173.28L1167.14 914.157H1217.73L1225.38 934.164Z" fill="#3C4E74"/>
<path d="M1282.97 934.164H1230.86L1223.04 914.157H1273.63L1282.97 934.164Z" fill="#3C4E74"/>
<path d="M1340.54 934.164H1288.44L1278.94 914.157H1329.53L1340.54 934.164Z" fill="#3C4E74"/>
<path d="M1443.61 934.164H1346.02L1334.84 914.157H1429.57L1443.61 934.164Z" fill="#3C4E74"/>
<path d="M500.851 987.897H444.664L460.926 964.691H515.363L500.851 987.897Z" fill="#3C4E74"/>
<path d="M562.942 987.897H506.754L521.076 964.691H575.513L562.942 987.897Z" fill="#3C4E74"/>
<path d="M625.048 987.897H568.845L581.209 964.691H635.646L625.048 987.897Z" fill="#3C4E74"/>
<path d="M687.139 987.897H630.936L641.359 964.691H695.796L687.139 987.897Z" fill="#3C4E74"/>
<path d="M749.23 987.897H693.027L701.509 964.691H755.929L749.23 987.897Z" fill="#3C4E74"/>
<path d="M811.321 987.897H755.118L761.642 964.691H816.079L811.321 987.897Z" fill="#3C4E74"/>
<path d="M873.412 987.897H817.208L821.791 964.691H876.212L873.412 987.897Z" fill="#3C4E74"/>
<path d="M935.502 987.897H879.3L881.925 964.691H936.362L935.502 987.897Z" fill="#3C4E74"/>
<path d="M997.594 987.897H941.39L942.074 964.691H996.496L997.594 987.897Z" fill="#3C4E74"/>
<path d="M1059.68 987.897H1003.48L1002.21 964.691H1056.65L1059.68 987.897Z" fill="#3C4E74"/>
<path d="M1121.78 987.897H1065.59L1062.36 964.691H1116.78L1121.78 987.897Z" fill="#3C4E74"/>
<path d="M1183.87 987.897H1127.68L1122.51 964.691H1176.93L1183.87 987.897Z" fill="#3C4E74"/>
<path d="M1245.96 987.897H1189.77L1182.64 964.691H1237.08L1245.96 987.897Z" fill="#3C4E74"/>
<path d="M1308.05 987.897H1251.86L1242.77 964.691H1297.21L1308.05 987.897Z" fill="#3C4E74"/>
<path d="M1370.14 987.897H1313.95L1302.92 964.691H1357.36L1370.14 987.897Z" fill="#3C4E74"/>
<path d="M1481.27 987.897H1376.04L1363.07 964.691H1464.99L1481.27 987.897Z" fill="#3C4E74"/>
<path d="M480.753 1020.1H422.116L439.795 994.837H496.523L480.753 1020.1Z" fill="#3C4E74"/>
<path d="M545.55 1020.1H486.912L502.475 994.837H559.203L545.55 1020.1Z" fill="#3C4E74"/>
<path d="M610.346 1020.1H551.708L565.154 994.837H621.866L610.346 1020.1Z" fill="#3C4E74"/>
<path d="M675.126 1020.1H616.488L627.834 994.837H684.546L675.126 1020.1Z" fill="#3C4E74"/>
<path d="M1193.48 1020.1H1134.86L1129.22 994.837H1185.93L1193.48 1020.1Z" fill="#3C4E74"/>
<path d="M1258.27 1020.1H1199.64L1191.89 994.837H1248.61L1258.27 1020.1Z" fill="#3C4E74"/>
<path d="M1323.07 1020.1H1264.43L1254.57 994.837H1311.29L1323.07 1020.1Z" fill="#3C4E74"/>
<path d="M1387.86 1020.1H1329.23L1317.25 994.837H1373.96L1387.86 1020.1Z" fill="#3C4E74"/>
<path d="M1453.41 1020.1H1392.43L1380.43 994.837H1437.16L1453.41 1020.1Z" fill="#3C4E74"/>
<path d="M1503.84 1020.1H1459.93L1443.65 994.837H1486.14L1503.84 1020.1Z" fill="#3C4E74"/>
<path d="M1127.09 1020.1H681.284L690.497 994.837H1121.71L1127.09 1020.1Z" fill="#3C4E74"/>
<path d="M1242.11 856.668H683.846C675.831 856.668 669.333 863.167 669.333 871.184V873.699C669.333 881.715 675.831 888.214 683.846 888.214H1242.11C1250.12 888.214 1256.62 881.715 1256.62 873.699V871.184C1256.62 863.167 1250.12 856.668 1242.11 856.668Z" fill="#241F41"/>
<path opacity="0.2" d="M795.552 961.078C795.552 961.078 818.02 1008.06 816.063 1046.64C814.106 1085.22 778.828 1125.64 681.284 1145.71C583.74 1165.78 511.321 1189.59 506.755 1188.54C502.188 1187.49 444.696 1106.22 444.696 1106.22L486.927 1034.6C486.927 1034.6 461.101 1011.33 566.252 976.31L671.418 941.295L795.552 961.078Z" fill="#1B0B2E"/>
<path opacity="0.2" d="M1136.72 961.078C1136.72 961.078 1126.99 1008.06 1128.95 1046.64C1130.91 1085.22 1166.19 1125.64 1263.73 1145.71C1361.28 1165.78 1433.71 1189.57 1438.28 1188.54C1442.84 1187.5 1500.34 1106.22 1500.34 1106.22L1458.09 1034.6C1458.09 1034.6 1483.93 1011.33 1378.76 976.31L1273.61 941.295L1136.72 961.078Z" fill="#1B0B2E"/>
<path d="M521.124 1127.08C521.124 1127.08 634.628 1107.6 667.105 1093.88C699.583 1080.16 726.268 1088.11 752.254 1085.92C778.239 1083.74 807.088 1068.61 796.268 1044.07C785.447 1019.52 746.716 1010.88 710.483 1018.82C674.25 1026.76 637.444 1010.86 642.902 1010.16C648.36 1009.46 689.431 974.798 691.977 964.691C701.015 966.139 727.716 961.81 734.209 961.078C743.597 963.975 763.806 979.843 775.343 977.679C786.879 975.514 794.82 967.572 795.552 961.078C796.284 954.584 743.836 909.303 727.128 908.555L710.404 907.743C710.404 907.743 679.47 849.665 648.997 852.164C618.524 854.662 606.033 875.067 606.033 875.067C606.033 875.067 588.115 853.612 572.744 860.297C557.372 866.982 540.616 896.172 540.616 896.172C540.616 896.172 517.241 896.172 506.882 899.085C496.523 901.997 476.552 942.361 474.388 945.241C472.224 948.122 360.375 1028.64 354.599 1032.78C348.822 1036.92 468.246 1010.88 521.124 1127.08Z" fill="#F1C6B6"/>
<g opacity="0.7">
<path opacity="0.7" d="M521.123 1127.08C521.123 1127.08 634.628 1107.6 667.105 1093.88C699.583 1080.16 726.268 1088.11 752.253 1085.92C777.173 1083.86 804.765 1069.82 797.382 1047.01C782.981 1064.68 756.518 1049.43 750.885 1046.63C744.345 1057.94 726.459 1062.11 699.169 1065.11C671.879 1068.1 648.997 1072.25 615.628 1077.93C582.26 1083.62 533.981 1078.21 524.449 1067.48C521.553 1073.64 508.298 1083.11 498.353 1089.59C507.467 1101.09 515.116 1113.69 521.123 1127.08Z" fill="#F2AE98"/>
</g>
<g opacity="0.7">
<path opacity="0.7" d="M642.361 1010.47C642.361 1010.31 642.552 1010.21 642.903 1010.16C648.345 1009.45 689.447 974.798 691.977 964.691C701.015 966.14 727.716 961.811 734.209 961.078C743.597 963.975 763.806 979.844 775.343 977.679C786.879 975.514 794.82 967.572 795.552 961.078C795.552 961.078 759.239 970.946 751.49 966.172C743.74 961.397 741.354 945.305 741.354 945.305C741.354 945.305 702.622 963.784 696.066 960.219C692.615 958.454 689.406 956.25 686.519 953.661C686.519 953.661 684.737 972.761 668.649 977.536C652.561 982.311 620.911 999.58 620.911 999.58C627.599 1004.06 634.801 1007.71 642.361 1010.47Z" fill="#F2AE98"/>
</g>
<g opacity="0.7">
<path opacity="0.7" d="M621.007 910.942C621.007 910.942 647.708 876.181 666.008 878.012C684.307 879.842 701.477 908.38 698.915 908.746C696.353 909.112 686.185 909.478 677.337 910.942C668.49 912.407 621.007 910.942 621.007 910.942Z" fill="#F2AE98"/>
</g>
<g opacity="0.7">
<path opacity="0.7" d="M606.081 875.019C606.081 875.019 583.692 901.074 558.455 907.648C566.506 902.157 606.081 875.019 606.081 875.019Z" fill="#F2AE98"/>
</g>
<g opacity="0.7">
<path opacity="0.7" d="M540.171 898.878C540.171 898.878 526.263 926.317 502.124 931.076C511.624 924.487 540.171 898.878 540.171 898.878Z" fill="#F2AE98"/>
</g>
<path d="M341.503 1582.72C355.586 1536.78 453.177 1226.85 544.643 1152.98C544.643 1152.98 538.453 1005.87 330.794 1027.74C252.997 1108.53 1.48325 1378.59 -62.2466 1582.65L341.503 1582.72Z" fill="#0596D2"/>
<path opacity="0.6" d="M464.921 1043.41C468.457 1083.86 468.1 1124.55 463.855 1164.93C453.925 1255.02 274.113 1540.91 170.332 1582.72H341.503C355.586 1536.78 453.177 1226.85 544.643 1152.98C544.627 1152.98 541.444 1078.52 464.921 1043.41Z" fill="#0178A7"/>
<path d="M1411.15 1127.08C1411.15 1127.08 1297.64 1107.6 1265.16 1093.88C1232.69 1080.16 1205.98 1088.11 1180.02 1085.93C1154.05 1083.74 1125.18 1068.61 1136 1044.07C1146.82 1019.52 1185.62 1010.86 1221.79 1018.81C1257.95 1026.75 1294.82 1010.85 1289.37 1010.15C1283.91 1009.45 1242.82 974.782 1240.29 964.675C1231.25 966.124 1204.55 961.795 1198.06 961.062C1188.67 963.959 1168.46 979.828 1156.93 977.663C1145.39 975.498 1137.43 967.556 1136.72 961.062C1136 954.569 1188.43 909.287 1205.14 908.539L1221.87 907.727C1221.87 907.727 1248.58 868.366 1279.06 870.817C1309.53 873.269 1326.19 875.067 1326.19 875.067C1336.02 872.764 1346.33 873.674 1355.61 877.662C1370.98 884.362 1391.59 896.172 1391.59 896.172C1391.59 896.172 1414.98 896.172 1425.34 899.085C1435.7 901.997 1455.67 942.361 1457.83 945.242C1460 948.123 1571.85 1028.64 1577.62 1032.78C1583.4 1036.92 1464.04 1010.88 1411.15 1127.08Z" fill="#F1C6B6"/>
<g opacity="0.7">
<path opacity="0.7" d="M1411.14 1127.08C1411.14 1127.08 1297.64 1107.6 1265.16 1093.88C1232.69 1080.16 1205.98 1088.11 1180.01 1085.92C1155.1 1083.86 1127.5 1069.82 1134.87 1047.01C1149.29 1064.68 1175.75 1049.43 1181.37 1046.63C1187.92 1057.94 1205.81 1062.11 1233.08 1065.11C1260.36 1068.1 1283.27 1072.25 1316.64 1077.93C1350.01 1083.62 1398.29 1078.21 1407.82 1067.48C1410.72 1073.64 1423.97 1083.11 1433.92 1089.59C1424.8 1101.09 1417.15 1113.69 1411.14 1127.08Z" fill="#F2AE98"/>
</g>
<g opacity="0.7">
<path opacity="0.7" d="M1289.91 1010.47C1289.91 1010.31 1289.72 1010.21 1289.37 1010.16C1283.92 1009.45 1242.82 974.798 1240.29 964.691C1231.25 966.14 1204.55 961.811 1198.06 961.078C1188.67 963.975 1168.46 979.844 1156.93 977.679C1145.39 975.514 1137.43 967.572 1136.72 961.078C1136.72 961.078 1173.03 970.946 1180.78 966.172C1188.53 961.397 1190.92 945.305 1190.92 945.305C1190.92 945.305 1229.65 963.784 1236.2 960.219C1239.65 958.454 1242.86 956.25 1245.75 953.661C1245.75 953.661 1247.53 972.761 1263.62 977.536C1279.71 982.311 1311.36 999.58 1311.36 999.58C1304.67 1004.06 1297.47 1007.71 1289.91 1010.47Z" fill="#F2AE98"/>
</g>
<g opacity="0.7">
<path opacity="0.7" d="M1311.26 910.942C1311.26 910.942 1284.56 889.503 1266.26 891.333C1247.96 893.164 1230.79 908.38 1233.34 908.746C1235.88 909.112 1246.07 909.478 1254.93 910.942C1263.79 912.407 1311.26 910.942 1311.26 910.942Z" fill="#F2AE98"/>
</g>
<g opacity="0.7">
<path opacity="0.7" d="M1326.19 875.019C1326.19 875.019 1348.58 901.074 1373.81 907.648C1365.71 902.157 1326.19 875.019 1326.19 875.019Z" fill="#F2AE98"/>
</g>
<g opacity="0.7">
<path opacity="0.7" d="M1392.1 898.878C1392.1 898.878 1406 926.317 1430.14 931.076C1420.64 924.487 1392.1 898.878 1392.1 898.878Z" fill="#F2AE98"/>
</g>
<path d="M1590.77 1582.72H1989.22C1919.76 1375.81 1679.27 1108.59 1601.47 1027.8C1393.82 1005.93 1387.63 1153.04 1387.63 1153.04C1479.08 1226.77 1576.68 1536.7 1590.77 1582.72Z" fill="#0596D2"/>
<path opacity="0.6" d="M1470.39 1043.41C1466.85 1083.86 1467.21 1124.55 1471.45 1164.93C1481.38 1255.02 1661.28 1540.91 1764.98 1582.64H1593.81C1579.72 1536.7 1482.13 1226.77 1390.67 1152.9C1390.67 1152.98 1393.82 1078.52 1470.39 1043.41Z" fill="#0178A7"/>
<path d="M1482.4 201.669H443.55C440.694 201.669 438.378 203.985 438.378 206.841V843.123C438.378 845.98 440.694 848.296 443.55 848.296H1482.4C1485.26 848.296 1487.57 845.98 1487.57 843.123V206.841C1487.57 203.985 1485.26 201.669 1482.4 201.669Z" fill="white"/>
<path opacity="0.11" d="M616.074 848.2H719.394L1039.98 201.748H936.664L616.074 848.2Z" fill="white"/>
<path opacity="0.11" d="M783.076 848.2H949.251L1269.84 201.748H1103.67L783.076 848.2Z" fill="white"/>
</svg>
